<?xml version="1.0" standalone="yes"?>
<svg xmlns="http://www.w3.org/2000/svg" width="500" height="500">
<path style="fill:#e9e9e9; stroke:none;" d="M0 0L0 500L500 500L500 137L454 152L454 151L500 136L500 0L0 0z"/>
<path style="fill:#bebebe; stroke:none;" d="M144 18L146 28L147 28L148 26L149 30L150 30L144 18z"/>
<path style="fill:#b5b5b5; stroke:none;" d="M293 28L284 50C288.599 46.6365 294.841 33.6165 293 28z"/>
<path style="fill:#acacac; stroke:none;" d="M150 30C151.09 35.5297 153.303 42.6042 158 46L150 30z"/>
<path style="fill:#cbcbcb; stroke:none;" d="M148 31L156 62L157 62C156.467 52.212 153.026 39.4464 148 31z"/>
<path style="fill:#fefefe; stroke:none;" d="M151 37L169.187 101L177 129L190 122C186.617 101.546 171.895 79.9858 163.568 61C160.362 53.6886 157.294 42.1026 151 37z"/>
<path style="fill:#575757; stroke:none;" d="M157 46L190 121L194 119L169.396 69L157 46z"/>
<path style="fill:#919191; stroke:none;" d="M284 50C280.062 56.8454 274.808 65.9561 275 74L279 65L287 77L281.41 63L284 50z"/>
<path style="fill:#bababa; stroke:none;" d="M157 62L159 71L160 71L157 62z"/>
<path style="fill:#919191; stroke:none;" d="M149 68L152 70L149 68z"/>
<path style="fill:#8a8a8a; stroke:none;" d="M152 70L161 76L161 71L160 71L152 70z"/>
<path style="fill:#6a6a6a; stroke:none;" d="M274 73C270.139 79.8892 263.758 89.9439 265 98C268.641 92.2536 275.434 79.7713 274 73z"/>
<path style="fill:#bdbdbd; stroke:none;" d="M161 74L167 99L168 99C167.752 90.8656 165.176 81.0185 161 74z"/>
<path style="fill:#b8b8b8; stroke:none;" d="M175.333 87.6667L175.667 88.3333L175.333 87.6667z"/>
<path style="fill:#68a9ff; stroke:none;" d="M348 151C323.309 134.42 297.773 119.119 273 102.666C265.975 98.0006 252.959 85.6227 244 87.5243C235.788 89.2675 226.99 97.2032 220 101.702C203.319 112.436 186.583 123.106 170 133.993C163.595 138.198 149.665 143.588 145.933 150.364C143.538 154.714 150.801 158.32 154 159.28C162.788 161.917 171.012 155.825 178 151.432C194.126 141.296 209.877 130.568 226 120.432C231.026 117.273 240.826 108.272 247 109.275C253.538 110.337 261.408 117.728 267 121.239C283.47 131.581 299.723 142.349 316 152.992C326.047 159.562 340.849 164.378 348 151z"/>
<path style="fill:#bfbfbf; stroke:none;" d="M266 95L266 99L267 99L266 95z"/>
<path style="fill:#bbbbbb; stroke:none;" d="M168 99L175 131L176 131C178.346 122.186 172.978 106.485 168 99z"/>
<path style="fill:#9a9a9a; stroke:none;" d="M190 106L189 111L190 106z"/>
<path style="fill:#f4f4f4; stroke:none;" d="M199 137C202.748 144.46 213.958 158.207 222.01 161.283C230.612 164.57 243.845 163 253 163C255.258 151.072 268.98 135.239 267.328 123.227C266.721 118.808 259.297 115.852 256 113.666C253.111 111.751 249.661 108.699 246 108.699C241.22 108.699 235.879 113.626 232 116.055C220.976 122.96 210.316 130.587 199 137z"/>
<path style="fill:#b3b3b3; stroke:none;" d="M442 114L430 132L450 131L450 130L432 131C435.632 126.67 442.36 119.906 442 114z"/>
<path style="fill:#565656; stroke:none;" d="M268 122L253 163L258 163C260.915 153.263 264.699 143.508 268.309 134C269.988 129.577 272.636 125.101 268 122z"/>
<path style="fill:#ffffff; stroke:none;" d="M271 125L258 163C262.479 163 269.725 161.643 273.648 164.15C279.684 168.006 279.675 182.631 282 189L283 189L288.066 167.087L292.219 156.111L271 137L278 137L276 135L277 130L280 131L271 125z"/>
<path style="fill:#868686; stroke:none;" d="M429 132L405 167L409 167L409 166L407 165C416.494 156.776 424.805 142.901 431 132L429 132z"/>
<path style="fill:#c8c6c7; stroke:none;" d="M473 145L500 137C492.846 134.899 479.219 141.299 473 145z"/>
<path style="fill:#b2b2b2; stroke:none;" d="M271 137L283 147L284 146L271 137z"/>
<path style="fill:#959595; stroke:none;" d="M198 138L204 146L205 145L198 138z"/>
<path style="fill:#838383; stroke:none;" d="M266 138L265 143L266 143L266 138z"/>
<path style="fill:#ffffff; stroke:none;" d="M177 151L181 163C195.731 163.011 200.67 177.25 207 189L208 189L207 163L218 163C214.253 157.642 203.179 139.672 195.941 140.303C189.532 140.861 182.734 148.201 177 151z"/>
<path style="fill:#c0c0c0; stroke:none;" d="M38 141L49 150L38 141z"/>
<path style="fill:#565656; stroke:none;" d="M204 145L218 163L208 163L208 164L225 165L228 163L228 162C216.859 161.435 213.04 149.674 204 145z"/>
<path style="fill:#b2b2b2; stroke:none;" d="M301 145L300 153L310 159L301 145z"/>
<path style="fill:#808080; stroke:none;" d="M454 151L454 152L474 146L454 151z"/>
<path style="fill:#5a5a5a; stroke:none;" d="M283 146C287.471 152.06 292.82 154.914 293 163L301 165L297 163L300 152L296 161L295 161L296 153L283 146z"/>
<path style="fill:#bbbbbb; stroke:none;" d="M29 147L29 148C35.3452 150.478 47.6789 158.742 54 155L29 147z"/>
<path style="fill:#b6b6b6; stroke:none;" d="M263.333 147.667L263.667 148.333L263.333 147.667z"/>
<path style="fill:#a5a3a4; stroke:none;" d="M296 148L295 153L296 153L296 148z"/>
<path style="fill:#979797; stroke:none;" d="M49 150L54 155L53 157L54 158L57 155L49 150z"/>
<path style="fill:#545454; stroke:none;" d="M176 152L177 164L181 163L176 152z"/>
<path style="fill:#555555; stroke:none;" d="M317 194L316 200L355 186.987L454 153C444.401 149.601 427.339 159.812 418 162.886C396.76 169.877 374.963 175.826 354 183.625C343.433 187.557 328.359 195.224 317 194z"/>
<path style="fill:#adadad; stroke:none;" d="M255.333 154.667L255.667 155.333L255.333 154.667z"/>
<path style="fill:#9f9f9f; stroke:none;" d="M178.333 155.667L178.667 156.333L178.333 155.667z"/>
<path style="fill:#707070; stroke:none;" d="M56 156L60 159L56 156z"/>
<path style="fill:#9c9c9c; stroke:none;" d="M254.333 157.667L254.667 158.333L254.333 157.667z"/>
<path style="fill:#b2b2b2; stroke:none;" d="M175 158L173 166C176.35 164.065 177.391 161.175 175 158z"/>
<path style="fill:#9f9f9f; stroke:none;" d="M60 159L60 160L86 170C81.4097 163.946 67.3161 160.385 60 159z"/>
<path style="fill:#afafaf; stroke:none;" d="M253 159L253 162L254 162L253 159z"/>
<path style="fill:#9c9c9c; stroke:none;" d="M180.333 160.667L180.667 161.333L180.333 160.667z"/>
<path style="fill:#989898; stroke:none;" d="M258.333 160.667L258.667 161.333L258.333 160.667z"/>
<path style="fill:#aaaaaa; stroke:none;" d="M292 160L292 163L293 163L292 160z"/>
<path style="fill:#8d8d8d; stroke:none;" d="M228 162L228 163L236 163L228 162z"/>
<path style="fill:#acacac; stroke:none;" d="M330 172L346 164C346.067 168.007 345.613 176.06 350 177L348 162C341.645 163.587 333.872 166.487 330 172z"/>
<path style="fill:#dedede; stroke:none;" d="M175 163C173.307 168.735 170.938 175.17 178 178L177 163L175 163z"/>
<path style="fill:#000000; stroke:none;" d="M178 163L178 212L190 212L189 181L190 181C194.414 195.532 203.07 212 219 212L219 164L208 164L209 190L192.341 165.15L178 163z"/>
<path style="fill:#444444; stroke:none;" d="M182 163L182 164L192 164L182 163z"/>
<path style="fill:#737373; stroke:none;" d="M207 163L207 181L208 181L207 163z"/>
<path style="fill:#000000; stroke:none;" d="M225 163L225 212L261 212L261 201L239 201L239 192L256 192L256 182L239 182L239 174L261 174L261 163L225 163z"/>
<path style="fill:#8f8f8f; stroke:none;" d="M261.333 163.667L261.667 164.333L261.333 163.667z"/>
<path style="fill:#454545; stroke:none;" d="M262 163L262 164L275 164L262 163z"/>
<path style="fill:#000000; stroke:none;" d="M289 163L283 191L282 191L276 164L262 164L274 212L286.183 210.85L294 186C295.828 192.53 296.379 205.283 301.032 210.283C303.977 213.448 311.809 212.686 313.686 208.784C319.504 196.688 323.759 177.342 325 164L314 164L309 190C299.756 179.518 307.393 163.254 289 163z"/>
<path style="fill:#424242; stroke:none;" d="M315 163L315 164L325 166C326.66 161.598 317.726 163 315 163z"/>
<path style="fill:#ababab; stroke:none;" d="M415.667 163.333L416.333 163.667L415.667 163.333z"/>
<path style="fill:#9c9c9c; stroke:none;" d="M220 164L220 165L224 165L220 164z"/>
<path style="fill:#4d4d4d; stroke:none;" d="M288.333 164.667L288.667 165.333L288.333 164.667z"/>
<path style="fill:#707070; stroke:none;" d="M219 165L219 212L220 212C220 198.271 223.798 177.839 219 165z"/>
<path style="fill:#ffffff; stroke:none;" d="M220 165L220 212C203.783 212 197.206 197.949 191 184L190 184L190 212L177 212L177 197C163.955 199.461 156.795 200.697 144 195.372C133.777 191.118 122.345 181.287 111 183C108.718 176.993 100.688 175.565 95 174C99.1266 183.504 104.289 190.698 115 185C112.745 190.104 111.16 198.106 116 202L114 206L113 206L107 202L106 207L120 211L120 189L121 189L124.221 212.804L116 231C118.91 232.525 123.281 235.877 126.744 235.013C131.955 233.713 135.932 225.414 141 222.73C155.626 214.983 173.947 224.04 177 240L160 242C159.186 236.111 153.285 229.54 147.52 235.412C144.101 238.896 144.13 245.436 144 250L151 250L151 246L178 246L178 278C172.848 277.956 169.946 277.457 167 273C156.364 277.573 147.722 282.073 137.011 274.298C133.383 271.665 130.931 266.428 126.776 264.729C122.841 263.119 114.661 265.508 112.717 269.458C108.824 277.371 114.883 291.47 115 300C133.155 295.49 150.041 279.661 169 279L169 280L167 282C175.581 284.946 181.671 289.197 189 282L184 332L185 332L201 308C189.184 328.192 177.137 347.151 177 371L181 377L182 377C181.834 364.038 205.564 369.001 215 369C220.795 369 226.244 369.97 227 363L228 363L228 367L231 368L232 368C230.945 347.903 213.24 330.152 204 313L223 341L224 341L214 293C215.259 294.152 220.033 300.908 220 296L239 307L238 301C245.034 301.362 246.395 305.544 247 312L249 312L251 301L258 301L260 313L261 313C262.49 307.679 262.882 302.257 269 301L264 324C279.262 331.456 277.665 309.796 275 300L301 300L301 299L275 299L275 298L300 298C296.419 291.438 288.475 287.004 292 279L270 266L273 278C268.443 278 260.426 279.53 256.51 276.85C250.756 272.913 253.965 267.078 244.997 267.005C234.55 266.921 237.772 276.281 229.926 277.784C214.734 280.694 196.484 278 181 278L181 221L200 221L200 264C206.162 264 218.005 261.599 222 267L223 267L232.568 235L238.35 222.15L256 221L267 257C270.87 253.025 273.312 251.127 279 251C268.152 233.031 283.008 216.708 303 220.503C310.285 221.886 315.533 228.93 323 228L321 232C329.498 229.514 317.392 212.897 315 208L314 208L314 212L300 212L294 186L293 186L288 212L275.51 210.85L270.377 198L262 165L261 165L261 175L239 175L239 181L257 181L257 193L239 193L239 200L261 200L261 212L224 212L224 165L220 165z"/>
<path style="fill:#737373; stroke:none;" d="M224 165L224 212L225 212C225 198.271 228.798 177.839 224 165z"/>
<path style="fill:#818181; stroke:none;" d="M172 166L174 178L175 178L174 166L172 166z"/>
<path style="fill:#5d5d5d; stroke:none;" d="M301.333 166.667L301.667 167.333L301.333 166.667z"/>
<path style="fill:#727272; stroke:none;" d="M194 167L195 168L194 167z"/>
<path style="fill:#a4a4a4; stroke:none;" d="M262.333 167.667L262.667 168.333L262.333 167.667z"/>
<path style="fill:#717171; stroke:none;" d="M276.333 167.667L276.667 168.333L276.333 167.667z"/>
<path style="fill:#515050; stroke:none;" d="M313.333 167.667L313.667 168.333L313.333 167.667z"/>
<path style="fill:#5c5c5c; stroke:none;" d="M287.333 168.667L287.667 169.333L287.333 168.667z"/>
<path style="fill:#979797; stroke:none;" d="M324.333 168.667L324.667 169.333L324.333 168.667z"/>
<path style="fill:#6a6a6a; stroke:none;" d="M86 169L86 170L131 189L130 185L86 169z"/>
<path style="fill:#898989; stroke:none;" d="M408 169L408 170C422.378 171.693 436.728 178.785 435 194C447.764 179.181 419.702 169.359 408 169z"/>
<path style="fill:#585858; stroke:none;" d="M302.333 170.667L302.667 171.333L302.333 170.667z"/>
<path style="fill:#b8b8b8; stroke:none;" d="M263.333 171.667L263.667 172.333L263.333 171.667z"/>
<path style="fill:#7b7b7b; stroke:none;" d="M277.333 171.667L277.667 172.333L277.333 171.667z"/>
<path style="fill:#5b5a5b; stroke:none;" d="M312.333 171.667L312.667 172.333L312.333 171.667z"/>
<path style="fill:#818181; stroke:none;" d="M323 172L323 176L330 171L323 172z"/>
<path style="fill:#9e9e9e; stroke:none;" d="M90 172L97 180L98 179L90 172z"/>
<path style="fill:#717171; stroke:none;" d="M197 172L198 173L197 172z"/>
<path style="fill:#686868; stroke:none;" d="M286.333 172.667L286.667 173.333L286.333 172.667z"/>
<path style="fill:#868686; stroke:none;" d="M239 174L239 175L261 175L239 174M264.333 174.667L264.667 175.333L264.333 174.667z"/>
<path style="fill:#545454; stroke:none;" d="M303.333 174.667L303.667 175.333L303.333 174.667z"/>
<path style="fill:#868686; stroke:none;" d="M278.333 175.667L278.667 176.333L278.333 175.667z"/>
<path style="fill:#b0b0b0; stroke:none;" d="M378 175L378 176L381 176L378 175z"/>
<path style="fill:#797979; stroke:none;" d="M285.333 176.667L285.667 177.333L285.333 176.667z"/>
<path style="fill:#6f6f6f; stroke:none;" d="M310 176L305 184L306 184L311 180L310 176z"/>
<path style="fill:#b1b1b1; stroke:none;" d="M322.333 176.667L322.667 177.333L322.333 176.667z"/>
<path style="fill:#717171; stroke:none;" d="M200 177L201 178L200 177z"/>
<path style="fill:#a7a7a7; stroke:none;" d="M372 177L372 178L375 178L372 177M163 179L163 180L172 182L173 182L173 178L163 179z"/>
<path style="fill:#545454; stroke:none;" d="M173 178C172.024 182.822 168.778 194.29 163.844 196.328C160.386 197.757 156.16 195.256 153 194.001C145.308 190.945 137.192 187.32 129 186C135.438 195.991 157.077 202.542 168 198.861C172.052 197.496 176.459 197.397 178 193L169 195L174 189L174 188L178 178L173 178z"/>
<path style="fill:#979797; stroke:none;" d="M265.333 178.667L265.667 179.333L265.333 178.667z"/>
<path style="fill:#505050; stroke:none;" d="M304.333 178.667L304.667 179.333L304.333 178.667z"/>
<path style="fill:#626262; stroke:none;" d="M97 179L103 208L105 208C104.863 197.997 104.253 186.584 97 179z"/>
<path style="fill:#e1e1e1; stroke:none;" d="M309 179L307 190L308 190L309 179z"/>
<path style="fill:#808080; stroke:none;" d="M321.333 179.667L321.667 180.333L321.333 179.667z"/>
<path style="fill:#afafaf; stroke:none;" d="M111 180C111.614 182.851 112.303 182.854 115 182L111 180z"/>
<path style="fill:#d7d7d7; stroke:none;" d="M174 188L174 189L169 195L178 193L178 180C175.086 181.67 171.516 184.663 174 188z"/>
<path style="fill:#555555; stroke:none;" d="M279.333 180.667L279.667 181.333L279.333 180.667z"/>
<path style="fill:#888888; stroke:none;" d="M284 180L284 183L285 183L284 180z"/>
<path style="fill:#929292; stroke:none;" d="M189 181L191 184L189 181z"/>
<path style="fill:#969696; stroke:none;" d="M239 181L239 182L257 182L239 181z"/>
<path style="fill:#717171; stroke:none;" d="M203 182L204 183L203 182z"/>
<path style="fill:#2e2e2e; stroke:none;" d="M256 182L256 192L257 192L256 182z"/>
<path style="fill:#a7a7a7; stroke:none;" d="M266.333 182.667L266.667 183.333L266.333 182.667z"/>
<path style="fill:#616161; stroke:none;" d="M309.333 183.667L309.667 184.333L309.333 183.667z"/>
<path style="fill:#909090; stroke:none;" d="M320.333 183.667L320.667 184.333L320.333 183.667z"/>
<path style="fill:#5e5e5e; stroke:none;" d="M280.333 184.667L280.667 185.333L280.333 184.667z"/>
<path style="fill:#bbbbbb; stroke:none;" d="M102 187L103 191L104 191L115 185L102 187z"/>
<path style="fill:#8e8e8e; stroke:none;" d="M191 185L192 186L191 185z"/>
<path style="fill:#5d5d5d; stroke:none;" d="M283.333 185.667L283.667 186.333L283.333 185.667z"/>
<path style="fill:#a4a4a4; stroke:none;" d="M124 186L124 187L128 188L128 187L124 186z"/>
<path style="fill:#b8b8b8; stroke:none;" d="M267.333 186.667L267.667 187.333L267.333 186.667z"/>
<path style="fill:#444444; stroke:none;" d="M306.333 186.667L306.667 187.333L306.333 186.667z"/>
<path style="fill:#a7a7a7; stroke:none;" d="M353 187L353 188L358 187L353 187z"/>
<path style="fill:#b4b4b4; stroke:none;" d="M160 187L160 188L169 190L160 187z"/>
<path style="fill:#898989; stroke:none;" d="M192 187L193 188L192 187z"/>
<path style="fill:#717171; stroke:none;" d="M206 187L207 188L206 187z"/>
<path style="fill:#a3a3a3; stroke:none;" d="M294.333 187.667L294.667 188.333L294.333 187.667z"/>
<path style="fill:#6d6d6d; stroke:none;" d="M308 187L308 190L309 190L308 187z"/>
<path style="fill:#9f9f9f; stroke:none;" d="M319.333 187.667L319.667 188.333L319.333 187.667z"/>
<path style="fill:#8b8b8b; stroke:none;" d="M336 189L336 190L344 188L336 189z"/>
<path style="fill:#d8d8d8; stroke:none;" d="M104 189C104.871 194.961 107.014 199.232 113 201L114 189L113 188L104 189z"/>
<path style="fill:#717171; stroke:none;" d="M208 188L207 190L209 190L208 188z"/>
<path style="fill:#6d6d6d; stroke:none;" d="M281 188L283 191L281 188z"/>
<path style="fill:#afafaf; stroke:none;" d="M120 189L118 211L118 212C122.6 211.014 123.01 192.01 120 189z"/>
<path style="fill:#adadad; stroke:none;" d="M140.667 189.333L141.333 189.667L140.667 189.333z"/>
<path style="fill:#8f8f8f; stroke:none;" d="M193 189L194 190L193 189z"/>
<path style="fill:#868686; stroke:none;" d="M268.333 189.667L268.667 190.333L268.333 189.667z"/>
<path style="fill:#9d9d9d; stroke:none;" d="M292.333 189.667L292.667 190.333L292.333 189.667z"/>
<path style="fill:#a6a6a6; stroke:none;" d="M295.333 191.667L295.667 192.333L295.333 191.667z"/>
<path style="fill:#acacac; stroke:none;" d="M318.333 191.667L318.667 192.333L318.333 191.667z"/>
<path style="fill:#b8b8b8; stroke:none;" d="M126 193L126 194L134 193L126 193z"/>
<path style="fill:#676767; stroke:none;" d="M195 192L196 193L195 192z"/>
<path style="fill:#8e8e8e; stroke:none;" d="M239 192L239 193L257 193L239 192z"/>
<path style="fill:#bbbbbb; stroke:none;" d="M104 193L104 209L110 209L106 207L107 202L113 206L114 206L116 202L104 193z"/>
<path style="fill:#979797; stroke:none;" d="M269.333 193.667L269.667 194.333L269.333 193.667z"/>
<path style="fill:#8f8f8f; stroke:none;" d="M291.333 193.667L291.667 194.333L291.333 193.667z"/>
<path style="fill:#9f9f9f; stroke:none;" d="M434 194L439 198L439 197L434 194z"/>
<path style="fill:#545454; stroke:none;" d="M121 195C121 200.363 122.734 208.498 118 212L118 213L110 234L128 237C125.1 235.13 119.79 233.886 118.168 230.658C116.053 226.451 121.658 219.9 122.982 216C125.006 210.038 124.029 200.475 121 195z"/>
<path style="fill:#a7a7a7; stroke:none;" d="M296.333 195.667L296.667 196.333L296.333 195.667z"/>
<path style="fill:#e0e0e0; stroke:none;" d="M176 196L177 212L178 212L176 196z"/>
<path style="fill:#a9a9a9; stroke:none;" d="M327 196L327 197L331 199L332 196L327 196z"/>
<path style="fill:#a4a4a4; stroke:none;" d="M161 197L161 198L164 198L161 197z"/>
<path style="fill:#9c9c9c; stroke:none;" d="M172.667 197.333L173.333 197.667L172.667 197.333z"/>
<path style="fill:#787878; stroke:none;" d="M198 197L199 198L198 197z"/>
<path style="fill:#a7a7a7; stroke:none;" d="M270.333 197.667L270.667 198.333L270.333 197.667z"/>
<path style="fill:#818181; stroke:none;" d="M290.333 197.667L290.667 198.333L290.333 197.667z"/>
<path style="fill:#d8d8d8; stroke:none;" d="M316 202C321.657 201.984 325.284 201.578 329 197L316 202z"/>
<path style="fill:#bababa; stroke:none;" d="M166 199L166 200L172 199L166 199z"/>
<path style="fill:#636363; stroke:none;" d="M315 202C314.141 211.78 326.967 223.034 323.238 231.674C320.98 236.904 315.15 236.047 312 240L325 237L325 242L326 242L328 226C318.222 217.28 324.053 207.25 330 198L315 202z"/>
<path style="fill:#a8a8a8; stroke:none;" d="M297.333 199.667L297.667 200.333L297.333 199.667z"/>
<path style="fill:#bbbbbb; stroke:none;" d="M157 200L157 201L160 201L157 200z"/>
<path style="fill:#5c5c5c; stroke:none;" d="M239 200L239 201L261 201L239 200z"/>
<path style="fill:#b8b8b8; stroke:none;" d="M271.333 201.667L271.667 202.333L271.333 201.667z"/>
<path style="fill:#898989; stroke:none;" d="M201 202L202 203L201 202z"/>
<path style="fill:#adadad; stroke:none;" d="M289.333 202.667L289.667 203.333L289.333 202.667z"/>
<path style="fill:#aaaaaa; stroke:none;" d="M298.333 203.667L298.667 204.333L298.333 203.667z"/>
<path style="fill:#dfdfdf; stroke:none;" d="M317 203L320 213C323.64 208.447 322.826 204.434 317 203z"/>
<path style="fill:#868686; stroke:none;" d="M272.333 204.667L272.667 205.333L272.333 204.667z"/>
<path style="fill:#626262; stroke:none;" d="M203 205L204 206L203 205z"/>
<path style="fill:#9e9e9e; stroke:none;" d="M288.333 206.667L288.667 207.333L288.333 206.667z"/>
<path style="fill:#9a9a9a; stroke:none;" d="M204 207L205 208L204 207z"/>
<path style="fill:#ababab; stroke:none;" d="M299.333 207.667L299.667 208.333L299.333 207.667z"/>
<path style="fill:#979797; stroke:none;" d="M273.333 208.667L273.667 209.333L273.333 208.667z"/>
<path style="fill:#8e8e8e; stroke:none;" d="M109 209L109 210L118 213L109 209z"/>
<path style="fill:#d1d1d1; stroke:none;" d="M124 210L124 215L125 215L124 210z"/>
<path style="fill:#727272; stroke:none;" d="M206 210L207 211L206 210z"/>
<path style="fill:#909090; stroke:none;" d="M287.333 210.667L287.667 211.333L287.333 210.667z"/>
<path style="fill:#bdbdbd; stroke:none;" d="M313.333 210.667L313.667 211.333L313.333 210.667z"/>
<path style="fill:#6f6f6f; stroke:none;" d="M300 211L301 212L300 211z"/>
<path style="fill:#cccccc; stroke:none;" d="M40 217L40 218L75 225C65.3325 220.047 50.8063 217.567 40 217z"/>
<path style="fill:#7f7f7f; stroke:none;" d="M146.667 220.333L147.333 220.667L146.667 220.333z"/>
<path style="fill:#000000; stroke:none;" d="M167 272C168.648 277.496 171.64 277.954 177 278L177 246L152 246L152 258L161 258C157.985 265.826 149.494 267.468 145.603 258.989C143.123 253.586 143.014 244.357 145.648 239.011C149.897 230.391 157.167 233.431 160 241L177 240C172.027 217.034 140.019 212.993 128.973 234C115.803 259.046 141.619 292.927 167 272z"/>
<path style="fill:#484848; stroke:none;" d="M154 220L154 221L158 221L154 220z"/>
<path style="fill:#3a3a3a; stroke:none;" d="M291 220L291 221L296 221L291 220z"/>
<path style="fill:#000000; stroke:none;" d="M288 259L272 261C273.681 283.547 316.138 285.399 321.41 264C324.197 252.69 316.308 244.899 306 242.443C303.071 241.746 292.04 240.925 292.867 236.07C293.315 233.442 296.972 233.12 299.001 233.559C308.245 235.557 310.332 237.162 320 234C313.856 216.212 278.69 214.787 274.789 235C272.747 245.583 279.04 252.717 289 255.314C292.861 256.321 299.758 256.474 302.067 260.321C304.086 263.685 299.714 265.627 296.996 265.464C292.721 265.209 289.904 262.516 288 259z"/>
<path style="fill:#424242; stroke:none;" d="M299 220L299 221L302 221L299 220z"/>
<path style="fill:#a4a4a4; stroke:none;" d="M302.667 220.333L303.333 220.667L302.667 220.333z"/>
<path style="fill:#4f4f4f; stroke:none;" d="M342 220L342 221L347 221L342 220z"/>
<path style="fill:#000000; stroke:none;" d="M323 261C326.957 280.848 364.991 286.569 372.079 265.997C372.852 263.755 372.985 261.352 372.978 259C372.919 240.043 354.513 247.642 345.569 238.324C342.929 235.574 346.086 232.912 349.031 233.077C352.5 233.27 354.887 235.552 357 238L372 234C362.634 213.614 320.603 216.192 326.406 243C328.609 253.173 339.637 254.715 347.999 257.064C350.292 257.708 355.518 259.366 353.87 262.772C352.691 265.211 349.367 265.771 347.003 265.196C343.383 264.315 341.246 260.913 337.804 259.821C333.47 258.447 327.495 260.764 323 261z"/>
<path style="fill:#b4b4b4; stroke:none;" d="M354.667 220.333L355.333 220.667L354.667 220.333z"/>
<path style="fill:#a9a9a9; stroke:none;" d="M181 221L181 278L182 278L182 240L181 221z"/>
<path style="fill:#000000; stroke:none;" d="M182 221L182 278L234 278C236.527 262.327 252.706 262.174 255 278L273 278L256 221L237.689 222.15L232.82 234L222 270L221 270L221 264L199 264L199 221L182 221z"/>
<path style="fill:#b1b1b1; stroke:none;" d="M199 221L199 264L200 264C200 251.363 203.42 232.827 199 221z"/>
<path style="fill:#444444; stroke:none;" d="M287.667 221.333L288.333 221.667L287.667 221.333z"/>
<path style="fill:#aaaaaa; stroke:none;" d="M306.667 221.333L307.333 221.667L306.667 221.333z"/>
<path style="fill:#5a5a5a; stroke:none;" d="M338.667 221.333L339.333 221.667L338.667 221.333z"/>
<path style="fill:#898989; stroke:none;" d="M140 222L141 223L140 222z"/>
<path style="fill:#797979; stroke:none;" d="M164 222L165 223L164 222z"/>
<path style="fill:#6b6b6b; stroke:none;" d="M309 222L310 223L309 222z"/>
<path style="fill:#7d7d7d; stroke:none;" d="M166 223L167 224L166 223z"/>
<path style="fill:#696969; stroke:none;" d="M311 223L312 224L311 223z"/>
<path style="fill:#6c6c6c; stroke:none;" d="M334 223L335 224L334 223z"/>
<path style="fill:#6f6f6f; stroke:none;" d="M281 224L282 225L281 224z"/>
<path style="fill:#b2b2b2; stroke:none;" d="M75 225L75 226L88 228L75 225z"/>
<path style="fill:#8b8b8b; stroke:none;" d="M169 225L170 226L169 225z"/>
<path style="fill:#434343; stroke:none;" d="M235.333 225.667L235.667 226.333L235.333 225.667z"/>
<path style="fill:#6c6c6c; stroke:none;" d="M314 225L315 226L314 225z"/>
<path style="fill:#838383; stroke:none;" d="M170 226L171 227L170 226z"/>
<path style="fill:#999999; stroke:none;" d="M328 226L327 230L331 226L328 226z"/>
<path style="fill:#797979; stroke:none;" d="M171 227L172 228L171 227z"/>
<path style="fill:#8a8a8a; stroke:none;" d="M87 228L87 229L94 230L87 228z"/>
<path style="fill:#545454; stroke:none;" d="M234.333 228.667L234.667 229.333L234.333 228.667z"/>
<path style="fill:#717171; stroke:none;" d="M317 228L318 229L317 228z"/>
<path style="fill:#afafaf; stroke:none;" d="M318 229L318 230L318 234L318 235L322 236L324 233L324 232L321 231L323 228L318 229z"/>
<path style="fill:#939393; stroke:none;" d="M276 229L277 230L276 229z"/>
<path style="fill:#8f8f8f; stroke:none;" d="M95 230L95 231L111 233L95 230z"/>
<path style="fill:#434343; stroke:none;" d="M319.333 230.667L319.667 231.333L319.333 230.667z"/>
<path style="fill:#8d8d8d; stroke:none;" d="M370 230L371 231L370 230z"/>
<path style="fill:#7c7c7c; stroke:none;" d="M130 231L131 232L130 231z"/>
<path style="fill:#979797; stroke:none;" d="M174 231L175 232L174 231z"/>
<path style="fill:#646464; stroke:none;" d="M233.333 231.667L233.667 232.333L233.333 231.667z"/>
<path style="fill:#bababa; stroke:none;" d="M118.667 232.333L119.333 232.667L118.667 232.333z"/>
<path style="fill:#464646; stroke:none;" d="M151 232L151 233L154 233L151 232z"/>
<path style="fill:#434343; stroke:none;" d="M347 232L347 233L350 233L347 232z"/>
<path style="fill:#909090; stroke:none;" d="M371 232L372 233L371 232z"/>
<path style="fill:#4a4a4a; stroke:none;" d="M259.333 233.667L259.667 234.333L259.333 233.667z"/>
<path style="fill:#ffffff; stroke:none;" d="M304 235C302.635 234.381 301.424 233.691 299.928 233.437C285.591 231.004 299.358 248.785 304 235z"/>
<path style="fill:#686868; stroke:none;" d="M344 233L345 240L349 240L344 233z"/>
<path style="fill:#b1b1b1; stroke:none;" d="M110 234L110 235L113 235L110 234z"/>
<path style="fill:#444444; stroke:none;" d="M274 234L274 237L275 237L274 234z"/>
<path style="fill:#919191; stroke:none;" d="M354 234L355 235L354 234z"/>
<path style="fill:#b3b3b3; stroke:none;" d="M291 235L291 238L292 238L291 235z"/>
<path style="fill:#a2a2a2; stroke:none;" d="M315.667 235.333L316.333 235.667L315.667 235.333z"/>
<path style="fill:#e0e0e0; stroke:none;" d="M306 242L311 243C313.176 238.157 316.197 237.488 321 236C315.428 234.323 308.34 236.538 306 242z"/>
<path style="fill:#a3a3a3; stroke:none;" d="M119.667 236.333L120.333 236.667L119.667 236.333z"/>
<path style="fill:#4a4a4a; stroke:none;" d="M176.333 236.667L176.667 237.333L176.333 236.667z"/>
<path style="fill:#595959; stroke:none;" d="M260.333 236.667L260.667 237.333L260.333 236.667z"/>
<path style="fill:#5a5a5a; stroke:none;" d="M304 236L301 242C305.316 241.519 307.109 239.628 304 236z"/>
<path style="fill:#bababa; stroke:none;" d="M343 236L345 239L343 236z"/>
<path style="fill:#7d7d7d; stroke:none;" d="M356 236L357 237L356 236z"/>
<path style="fill:#9c9c9c; stroke:none;" d="M363.667 236.333L364.333 236.667L363.667 236.333z"/>
<path style="fill:#f5f5f5; stroke:none;" d="M314 239L313 245L326 246L325 237L314 239z"/>
<path style="fill:#b1b1b1; stroke:none;" d="M360.667 237.333L361.333 237.667L360.667 237.333z"/>
<path style="fill:#696969; stroke:none;" d="M244 238L245 239L244 238z"/>
<path style="fill:#ffffff; stroke:none;" d="M244 239L240 254L249 254L244 239z"/>
<path style="fill:#6f6f6f; stroke:none;" d="M126 240L126 243L127 243L126 240z"/>
<path style="fill:#878787; stroke:none;" d="M170 240L170 241L173 241L170 240z"/>
<path style="fill:#9d9d9d; stroke:none;" d="M245.333 240.667L245.667 241.333L245.333 240.667z"/>
<path style="fill:#737373; stroke:none;" d="M296.667 240.333L297.333 240.667L296.667 240.333z"/>
<path style="fill:#9b9b9b; stroke:none;" d="M312 240L313 245L314 240L312 240z"/>
<path style="fill:#999999; stroke:none;" d="M144 241L144 244L145 244L144 241z"/>
<path style="fill:#808080; stroke:none;" d="M160 241L160 242L163 242L160 241z"/>
<path style="fill:#4a4a4a; stroke:none;" d="M230.333 241.667L230.667 242.333L230.333 241.667z"/>
<path style="fill:#878787; stroke:none;" d="M353.667 241.333L354.333 241.667L353.667 241.333z"/>
<path style="fill:#848484; stroke:none;" d="M274.333 242.667L274.667 243.333L274.333 242.667z"/>
<path style="fill:#8f8f8f; stroke:none;" d="M306.667 242.333L307.333 242.667L306.667 242.333z"/>
<path style="fill:#767676; stroke:none;" d="M357.667 242.333L358.333 242.667L357.667 242.333z"/>
<path style="fill:#8d8d8d; stroke:none;" d="M125 244L127 261L125 244z"/>
<path style="fill:#5c5c5c; stroke:none;" d="M229.333 244.667L229.667 245.333L229.333 244.667z"/>
<path style="fill:#a0a0a0; stroke:none;" d="M242.333 244.667L242.667 245.333L242.333 244.667z"/>
<path style="fill:#bdbdbd; stroke:none;" d="M246.333 244.667L246.667 245.333L246.333 244.667z"/>
<path style="fill:#c0c0c0; stroke:none;" d="M326 244L316 246L316 247L328 248L326 244z"/>
<path style="fill:#929292; stroke:none;" d="M314 245L315 246L314 245M151 246L151 250L146 250L146 251L151 251L150 259L155 259L155 258L152 258L151 246z"/>
<path style="fill:#a5a5a5; stroke:none;" d="M177 246L177 278L178 278L177 246z"/>
<path style="fill:#979797; stroke:none;" d="M247.333 247.667L247.667 248.333L247.333 247.667z"/>
<path style="fill:#f7f7f7; stroke:none;" d="M318 247L323 261L339 258C340.923 262.979 356.107 269.007 354.87 261.196C354.316 257.69 347.637 257.284 345 256.62C335.195 254.153 328.268 247.897 318 247z"/>
<path style="fill:#c1c1c1; stroke:none;" d="M241.333 248.667L241.667 249.333L241.333 248.667z"/>
<path style="fill:#707070; stroke:none;" d="M370 248L370 250L447 250L420 249L370 248z"/>
<path style="fill:#acacac; stroke:none;" d="M410 248L410 249L425 249L410 248z"/>
<path style="fill:#474747; stroke:none;" d="M264.333 249.667L264.667 250.333L264.333 249.667z"/>
<path style="fill:#797979; stroke:none;" d="M329 249L330 250L329 249z"/>
<path style="fill:#909090; stroke:none;" d="M447 249L447 250L457 250L457 251C446.997 254.053 436.069 262.199 432 272L447 258.415L461 249L447 249z"/>
<path style="fill:#bcbcbc; stroke:none;" d="M461 249L461 250L483 250L461 249z"/>
<path style="fill:#d8d8d8; stroke:none;" d="M144 250L151 258L151 251L144 250z"/>
<path style="fill:#8a8a8a; stroke:none;" d="M330 250L331 251L330 250z"/>
<path style="fill:#575757; stroke:none;" d="M144 251L145 261L146 261L150 259L144 251z"/>
<path style="fill:#9d9d9d; stroke:none;" d="M240.333 251.667L240.667 252.333L240.333 251.667z"/>
<path style="fill:#b8b8b8; stroke:none;" d="M248.333 251.667L248.667 252.333L248.333 251.667z"/>
<path style="fill:#a0a0a0; stroke:none;" d="M271 251L271 252L276 252L271 251z"/>
<path style="fill:#666666; stroke:none;" d="M268 262L269 262C270.576 254.336 274.766 253.02 282 253C274.515 248.476 267.095 253.704 268 262z"/>
<path style="fill:#555555; stroke:none;" d="M265.333 252.667L265.667 253.333L265.333 252.667z"/>
<path style="fill:#7b7b7b; stroke:none;" d="M333 252L334 253L333 252z"/>
<path style="fill:#c2c2c2; stroke:none;" d="M272 253L272 254L284 254L272 253z"/>
<path style="fill:#424242; stroke:none;" d="M226.333 254.667L226.667 255.333L226.333 254.667z"/>
<path style="fill:#4d4d4d; stroke:none;" d="M240 254L240 255L249 255L240 254z"/>
<path style="fill:#fafafa; stroke:none;" d="M271 254C272.711 262.537 285.815 260.897 290 255L271 254z"/>
<path style="fill:#404040; stroke:none;" d="M321.333 254.667L321.667 255.333L321.333 254.667z"/>
<path style="fill:#515151; stroke:none;" d="M337.667 254.333L338.333 254.667L337.667 254.333z"/>
<path style="fill:#646464; stroke:none;" d="M340.667 255.333L341.333 255.667L340.667 255.333z"/>
<path style="fill:#515151; stroke:none;" d="M373 255L373 262L374 262L373 255z"/>
<path style="fill:#989898; stroke:none;" d="M270 256L269 259L276 261L276 260L270 256z"/>
<path style="fill:#8b8b8b; stroke:none;" d="M285 258L285 259L288 262L289 262L295 257L285 258z"/>
<path style="fill:#656565; stroke:none;" d="M344.667 256.333L345.333 256.667L344.667 256.333z"/>
<path style="fill:#525252; stroke:none;" d="M225.333 257.667L225.667 258.333L225.333 257.667z"/>
<path style="fill:#fbfbfb; stroke:none;" d="M291.454 258.157C285.744 262.183 298.251 267.176 302.241 263.719C307.062 259.542 294.746 255.836 291.454 258.157z"/>
<path style="fill:#797979; stroke:none;" d="M297.667 257.333L298.333 257.667L297.667 257.333z"/>
<path style="fill:#8e8e8e; stroke:none;" d="M348 257L348 258L351 258L348 257z"/>
<path style="fill:#fefefe; stroke:none;" d="M146 259C148.899 267.364 158.769 266.001 161 258L146 259z"/>
<path style="fill:#c9c9c9; stroke:none;" d="M322 258L322 263L323 263L322 258z"/>
<path style="fill:#9e9e9e; stroke:none;" d="M337.667 258.333L338.333 258.667L337.667 258.333z"/>
<path style="fill:#5c5c5c; stroke:none;" d="M124 259L106.196 266.193L72 276L72 277L108 268L113 294L114 294C113.914 287.68 109.021 273.926 112.264 268.52C114.615 264.602 123.927 264.139 128 264L124 259z"/>
<path style="fill:#e4e4e4; stroke:none;" d="M269 259L269 263L271 263L271 259L269 259z"/>
<path style="fill:#8e8e8e; stroke:none;" d="M280.667 259.333L281.333 259.667L280.667 259.333z"/>
<path style="fill:#a0a0a0; stroke:none;" d="M331.667 259.333L332.333 259.667L331.667 259.333z"/>
<path style="fill:#4b4b4b; stroke:none;" d="M333.667 259.333L334.333 259.667L333.667 259.333z"/>
<path style="fill:#636363; stroke:none;" d="M224.333 260.667L224.667 261.333L224.333 260.667z"/>
<path style="fill:#4a4a4a; stroke:none;" d="M276.667 260.333L277.333 260.667L276.667 260.333z"/>
<path style="fill:#888888; stroke:none;" d="M326 260L326 261L329 261L326 260z"/>
<path style="fill:#4b4b4b; stroke:none;" d="M271 261L269 267L273 267L271 261z"/>
<path style="fill:#838383; stroke:none;" d="M159 262L160 263L159 262z"/>
<path style="fill:#6d6d6d; stroke:none;" d="M289 262L290 263L289 262z"/>
<path style="fill:#636363; stroke:none;" d="M290 263L291 264L290 263z"/>
<path style="fill:#646464; stroke:none;" d="M128 264L129 265L128 264z"/>
<path style="fill:#7c7c7c; stroke:none;" d="M149 264L150 265L149 264z"/>
<path style="fill:#515151; stroke:none;" d="M221 264L221 270L222 270L221 264z"/>
<path style="fill:#727272; stroke:none;" d="M292 264L293 265L292 264z"/>
<path style="fill:#8e8e8e; stroke:none;" d="M302 264L303 265L302 264z"/>
<path style="fill:#4c4c4c; stroke:none;" d="M151 265L151 266L155 266L151 265z"/>
<path style="fill:#5e5e5e; stroke:none;" d="M295 265L295 266L301 266L295 265z"/>
<path style="fill:#646464; stroke:none;" d="M346 265L346 266L352 266L346 265z"/>
<path style="fill:#c9c9c9; stroke:none;" d="M111 272L112 272L116 267C112.232 266.253 111.375 268.608 111 272z"/>
<path style="fill:#424242; stroke:none;" d="M237 266L237 267L252 267L237 266z"/>
<path style="fill:#717171; stroke:none;" d="M324 266L325 267L324 266z"/>
<path style="fill:#b2b2b2; stroke:none;" d="M101 267L101 268L104 268L101 267z"/>
<path style="fill:#b9b9b9; stroke:none;" d="M252.333 267.667L252.667 268.333L252.333 267.667z"/>
<path style="fill:#535353; stroke:none;" d="M270.333 268.667L270.667 269.333L270.333 268.667z"/>
<path style="fill:#8d8d8d; stroke:none;" d="M325 268L326 269L325 268z"/>
<path style="fill:#818181; stroke:none;" d="M370 269L371 270L370 269z"/>
<path style="fill:#989898; stroke:none;" d="M253.333 270.667L253.667 271.333L253.333 270.667z"/>
<path style="fill:#616161; stroke:none;" d="M271.333 271.667L271.667 272.333L271.333 271.667z"/>
<path style="fill:#7f7f7f; stroke:none;" d="M276 271L277 272L276 271z"/>
<path style="fill:#949494; stroke:none;" d="M317 271L318 272L317 271z"/>
<path style="fill:#8b8b8b; stroke:none;" d="M166 272L167 273L166 272z"/>
<path style="fill:#959595; stroke:none;" d="M277 272L278 273L277 272z"/>
<path style="fill:#b1b1b1; stroke:none;" d="M431 272L429 278L430 278L431 272z"/>
<path style="fill:#666666; stroke:none;" d="M366 273L367 274L366 273z"/>
<path style="fill:#7e7e7e; stroke:none;" d="M136 274L137 275L136 274z"/>
<path style="fill:#bdbdbd; stroke:none;" d="M234.333 274.667L234.667 275.333L234.333 274.667z"/>
<path style="fill:#bebebe; stroke:none;" d="M254.333 274.667L254.667 275.333L254.333 274.667z"/>
<path style="fill:#707070; stroke:none;" d="M313 274L314 275L313 274z"/>
<path style="fill:#747474; stroke:none;" d="M162 275L163 276L162 275z"/>
<path style="fill:#7a7a7a; stroke:none;" d="M333 275L334 276L333 275z"/>
<path style="fill:#959595; stroke:none;" d="M47 283L47 284L74 278C65.9575 275.017 54.7132 280.392 47 283z"/>
<path style="fill:#535353; stroke:none;" d="M286.667 277.333L287.333 277.667L286.667 277.333z"/>
<path style="fill:#6f6f6f; stroke:none;" d="M305.667 277.333L306.333 277.667L305.667 277.333z"/>
<path style="fill:#8e8e8e; stroke:none;" d="M357.667 277.333L358.333 277.667L357.667 277.333z"/>
<path style="fill:#8c8c8c; stroke:none;" d="M145.667 278.333L146.333 278.667L145.667 278.333z"/>
<path style="fill:#3e3e3e; stroke:none;" d="M147 278L147 279L153 279L147 278z"/>
<path style="fill:#838383; stroke:none;" d="M153 278L153 279L156 279L153 278z"/>
<path style="fill:#545454; stroke:none;" d="M290 278L290 279L292 280C286.425 286.436 297.559 296.707 304 298L298 289L313 292L313 291L293 285C297.545 279.263 303.516 281.153 310 282L310 281L290 278z"/>
<path style="fill:#393939; stroke:none;" d="M342 278L342 279L354 279L342 278z"/>
<path style="fill:#969696; stroke:none;" d="M162 279L162 280L166 282L167 282L169 280L162 279z"/>
<path style="fill:#555555; stroke:none;" d="M124 298L163 283.142L183 290L178 349C187.805 340.092 195.768 320.211 201 308C193.087 312.526 186.94 326.58 184 335C181.782 324.903 185.17 312.287 185.968 302C186.23 298.614 187.782 293.659 186.272 290.458C184.437 286.566 177.636 285.568 174.001 284.189C170.56 282.884 166.626 280.396 162.885 280.323C154.123 280.151 129.233 291.094 124 298z"/>
<path style="fill:#b9b9b9; stroke:none;" d="M308.667 280.333L309.333 280.667L308.667 280.333z"/>
<path style="fill:#7a7a7a; stroke:none;" d="M304 281L304 286L307 281L304 281z"/>
<path style="fill:#9c9c9c; stroke:none;" d="M309 282L309 283L314 283L309 282z"/>
<path style="fill:#8f8f8f; stroke:none;" d="M188 282L183 288L187 294L188 294L188 282z"/>
<path style="fill:#bbbbbb; stroke:none;" d="M111 283L111 287L112 287L111 283z"/>
<path style="fill:#989898; stroke:none;" d="M293.333 283.667L293.667 284.333L293.333 283.667z"/>
<path style="fill:#bfbfbf; stroke:none;" d="M143.667 287.333L144.333 287.667L143.667 287.333z"/>
<path style="fill:#b0b0b0; stroke:none;" d="M141.667 288.333L142.333 288.667L141.667 288.333z"/>
<path style="fill:#a7a7a7; stroke:none;" d="M177.667 288.333L178.333 288.667L177.667 288.333z"/>
<path style="fill:#9e9e9e; stroke:none;" d="M298 291L302 290L298 291z"/>
<path style="fill:#747474; stroke:none;" d="M310 292L310 293L323 295L310 292M114 292C112.278 303.697 103.436 305.92 93 310L93 311C103.049 309.778 116.491 303.484 125 298L115 300L114 292z"/>
<path style="fill:#d2d2d2; stroke:none;" d="M97 293L90 310L90 311C96.636 309.272 96.6331 298.786 99 293L97 293z"/>
<path style="fill:#545454; stroke:none;" d="M214 293L225 343L224 343L213 327C216.733 338.063 225.003 347.694 230.442 358C233.109 363.055 232.995 368.952 235.801 373.941C239.07 379.751 246.783 384.458 248.427 391C249.42 394.953 245.827 400.521 244.18 404C239.19 414.544 228.53 437.999 215 438.774C205.63 439.311 198.768 429.68 191 426C193.066 429.358 195.874 431.882 199.001 434.293C222.829 452.671 242.993 419.792 250 399L251 399L251 407L252 407C252 401.961 252.928 395.837 251.343 391C249.854 386.457 246.024 382.655 243.093 379C236.327 370.564 222.456 331.017 244 337C240.332 331.793 235.374 334.379 230 335L224 307L223 307L226 332L225 332C223.609 321.797 222.139 299.96 214 293z"/>
<path style="fill:#b6b6b6; stroke:none;" d="M314 293L314 294L317 294L314 293z"/>
<path style="fill:#9e9e9e; stroke:none;" d="M322 295L322 296L333 298L322 295M186 296L186 304L187 304L186 296z"/>
<path style="fill:#8dbeff; stroke:none;" d="M275 298L275 299L301 299L301 300L275 300L275 325L276 325L277 301L303 301L302 299L306 299L275 298z"/>
<path style="fill:#8a8a8a; stroke:none;" d="M217 301L218 301L219 299L224 307C223.655 303.712 218.654 293.319 217 301z"/>
<path style="fill:#aeaeae; stroke:none;" d="M215.333 299.667L215.667 300.333L215.333 299.667z"/>
<path style="fill:#efefef; stroke:none;" d="M218 299L222 316L223 316C222.987 310.101 222.989 302.923 218 299z"/>
<path style="fill:#bebebe; stroke:none;" d="M224 299L224 300L230 302L224 299z"/>
<path style="fill:#475466; stroke:none;" d="M302 299L302 300L306 305L307 305L307 299L302 299z"/>
<path style="fill:#669feb; stroke:none;" d="M303 300L303 311L290 310L289 316L303 312L304 325L305 325L305 300L303 300z"/>
<path style="fill:#87a4ca; stroke:none;" d="M358 300L358 301L363 301L358 300z"/>
<path style="fill:#004197; stroke:none;" d="M238 301L244 325L251 325L253 312L254 312C255.959 319.046 255.445 324.807 264 325L269 301C262.545 301.719 262.463 307.57 261 313L260 313C258.688 306.771 258.277 301.383 251 301L247 313L245 301L238 301z"/>
<path style="fill:#6189bf; stroke:none;" d="M257.333 301.667L257.667 302.333L257.333 301.667z"/>
<path style="fill:#d9e9ff; stroke:none;" d="M277 301L277 323L278 323L279 302L301 302L298 310L298 311L303 311L303 301L277 301z"/>
<path style="fill:#a1a1a1; stroke:none;" d="M304.333 301.667L304.667 302.333L304.333 301.667z"/>
<path style="fill:#004197; stroke:none;" d="M307 301L307 325L314 325L314 316C320.163 319.957 319.435 324.926 328 325L324 314C328.374 311.132 329.332 304.66 323.844 302.089C319.054 299.845 312.163 301 307 301z"/>
<path style="fill:#4976b3; stroke:none;" d="M329 301L327 322L327 323L329 325L330 325L329 301z"/>
<path style="fill:#004197; stroke:none;" d="M330 301L330 325L336 325L339 316C341.369 322.753 343.803 324.938 351 325C346.679 314.816 343.966 311.383 349 301C342.628 301.324 339.751 304.447 337 310L336 310L336 301L330 301z"/>
<path style="fill:#b4c5dc; stroke:none;" d="M336 301L336 310L337 310L336 301z"/>
<path style="fill:#004197; stroke:none;" d="M364 317L364 319L350 318C354.122 325.902 372.324 328.742 370.742 316.038C369.969 309.825 362.012 310.607 359 306L370 307C364.952 292.437 343.21 307.247 356.1 314.598C358.447 315.937 361.411 316.335 364 317z"/>
<path style="fill:#7e7e7e; stroke:none;" d="M229 302L229 303L240 310L240 306L229 302z"/>
<path style="fill:#68a9ff; stroke:none;" d="M279 302L279 303L301 303L279 302z"/>
<path style="fill:#6c91c3; stroke:none;" d="M245.333 303.667L245.667 304.333L245.333 303.667z"/>
<path style="fill:#fcfcfc; stroke:none;" d="M280 303L280 312L289 312L289 303L280 303z"/>
<path style="fill:#b3d4ff; stroke:none;" d="M289 303L289 311L290 311L291 303L289 303z"/>
<path style="fill:#fdfdfd; stroke:none;" d="M291 303L291 309L300 310L300 303L291 303z"/>
<path style="fill:#fbfbfb; stroke:none;" d="M304 303L304 312L306 312L306 303L304 303z"/>
<path style="fill:#969696; stroke:none;" d="M181 304L181 309L182 309L181 304z"/>
<path style="fill:#5c86bd; stroke:none;" d="M258.333 305.667L258.667 306.333L258.333 305.667z"/>
<path style="fill:#a9bfdc; stroke:none;" d="M268.333 305.667L268.667 306.333L268.333 305.667z"/>
<path style="fill:#c9d7e8; stroke:none;" d="M306 305L304 312L304 313C307.828 312.18 307.714 307.974 306 305z"/>
<path style="fill:#85a2c9; stroke:none;" d="M370.333 305.667L370.667 306.333L370.333 305.667z"/>
<path style="fill:#8e8e8e; stroke:none;" d="M185 306L185 311L186 311L185 306z"/>
<path style="fill:#f7f7f7; stroke:none;" d="M314 306L320 310L320 306L314 306z"/>
<path style="fill:#3d6eae; stroke:none;" d="M351 306L351 311L352 311L351 306z"/>
<path style="fill:#7699c7; stroke:none;" d="M246.333 307.667L246.667 308.333L246.333 307.667z"/>
<path style="fill:#527eb8; stroke:none;" d="M262.333 307.667L262.667 308.333L262.333 307.667z"/>
<path style="fill:#789ac6; stroke:none;" d="M320.333 307.667L320.667 308.333L320.333 307.667z"/>
<path style="fill:#5d86bd; stroke:none;" d="M249.333 308.667L249.667 309.333L249.333 308.667z"/>
<path style="fill:#5782ba; stroke:none;" d="M259.333 309.667L259.667 310.333L259.333 309.667z"/>
<path style="fill:#585858; stroke:none;" d="M291 309L291 312L300 312L291 309z"/>
<path style="fill:#668bbd; stroke:none;" d="M361 309L361 310L364 310L361 309z"/>
<path style="fill:#829cbe; stroke:none;" d="M315 310L315 311L319 311L315 310z"/>
<path style="fill:#898989; stroke:none;" d="M56 326L56 327L94 312C84.7509 309.289 64.6954 321.92 56 326z"/>
<path style="fill:#a2b8d6; stroke:none;" d="M247.667 312.333L248.333 312.667L247.667 312.333z"/>
<path style="fill:#8daad0; stroke:none;" d="M253 312L255 315L253 312z"/>
<path style="fill:#afcffb; stroke:none;" d="M279 312L279 321L280 321L280 313L288 313L279 312z"/>
<path style="fill:#6384af; stroke:none;" d="M296 313L296 314L302 315L298 322C302.275 319.606 302.895 316.718 303 312L296 313z"/>
<path style="fill:#ababab; stroke:none;" d="M204 313L213 328C212.339 322.129 208.394 316.813 204 313z"/>
<path style="fill:#ffffff; stroke:none;" d="M280 313L280 320L287 313L280 313z"/>
<path style="fill:#5a5a5a; stroke:none;" d="M280 322C285.23 321.002 288.002 318.23 289 313L280 322z"/>
<path style="fill:#dbdbdb; stroke:none;" d="M291 322C296.577 321.886 300.17 320.595 302 315C294.294 312.864 291.073 313.456 291 322z"/>
<path style="fill:#525252; stroke:none;" d="M304 313L304 316L307 316L307 313L304 313z"/>
<path style="fill:#8d8d8d; stroke:none;" d="M180 314L180 319L181 319L180 314z"/>
<path style="fill:#a1b8d7; stroke:none;" d="M241.333 314.667L241.667 315.333L241.333 314.667z"/>
<path style="fill:#f0f0f1; stroke:none;" d="M253 314L255 317L253 314z"/>
<path style="fill:#8faace; stroke:none;" d="M324.333 314.667L324.667 315.333L324.333 314.667z"/>
<path style="fill:#9ebeea; stroke:none;" d="M290 315L289 321L281 325L290 325L290 324L288 324L288 323L297 323L297 322L291 322L290 315z"/>
<path style="fill:#7b9bc5; stroke:none;" d="M371 315L371 319L372 319L371 315z"/>
<path style="fill:#b6b6b6; stroke:none;" d="M222 316L225 332L226 332L224 316L222 316z"/>
<path style="fill:#95b0d3; stroke:none;" d="M265.333 316.667L265.667 317.333L265.333 316.667z"/>
<path style="fill:#808080; stroke:none;" d="M304 316C304.079 321.466 304.303 326.859 311 326L311 325L304 316z"/>
<path style="fill:#c5d2e3; stroke:none;" d="M305 316L306 324L307 324L307 316L305 316z"/>
<path style="fill:#4f4f4f; stroke:none;" d="M314 316L318 320L317 316L314 316z"/>
<path style="fill:#5b84b9; stroke:none;" d="M361.667 316.333L362.333 316.667L361.667 316.333z"/>
<path style="fill:#606060; stroke:none;" d="M252 318L256 320C255.386 317.149 254.697 317.146 252 318z"/>
<path style="fill:#82a0c8; stroke:none;" d="M351.667 317.333L352.333 317.667L351.667 317.333z"/>
<path style="fill:#b3b3b3; stroke:none;" d="M184 318L184 323L185 323L184 318z"/>
<path style="fill:#f7f7f7; stroke:none;" d="M287 318L286 319L286 320L286 321L289 318L287 318z"/>
<path style="fill:#dddddd; stroke:none;" d="M252 319L252 321L254 321L254 319L252 319z"/>
<path style="fill:#f3f3f3; stroke:none;" d="M302 319L302 323L303 323L302 319z"/>
<path style="fill:#acbfd7; stroke:none;" d="M314 319L314 325L315 325L317 320L314 319z"/>
<path style="fill:#b3c4db; stroke:none;" d="M336 319L336 324L337 324L336 319z"/>
<path style="fill:#94adcf; stroke:none;" d="M359 319L359 320L363 320L359 319z"/>
<path style="fill:#a1a1a1; stroke:none;" d="M251 322L251 323C253.993 322.936 255.346 323.054 256 320L251 322z"/>
<path style="fill:#a4bbda; stroke:none;" d="M264.333 320.667L264.667 321.333L264.333 320.667z"/>
<path style="fill:#afd0fa; stroke:none;" d="M301 320L298 325L304 325L301 320z"/>
<path style="fill:#9e9e9e; stroke:none;" d="M179 321L179 326L180 326L179 321z"/>
<path style="fill:#c7c7c7; stroke:none;" d="M220 321L220 325L221 325L220 321z"/>
<path style="fill:#6384af; stroke:none;" d="M276 325L283 322L276 325z"/>
<path style="fill:#80a0cb; stroke:none;" d="M288 323L288 324L297 327L299 322L288 323z"/>
<path style="fill:#585858; stroke:none;" d="M262 325L262 326L303 350.063L332 367L301.707 344.57L298 327L296 327L297 341C290.346 337.808 280.952 333.381 277 327L262 325z"/>
<path style="fill:#919191; stroke:none;" d="M334 325L334 326L351 330C346.193 326.568 339.898 324.611 334 325z"/>
<path style="fill:#6186b7; stroke:none;" d="M274 326L277 330L278 330L279 326L274 326z"/>
<path style="fill:#555555; stroke:none;" d="M276 325L276 326L280 326L276 325z"/>
<path style="fill:#9bc0f0; stroke:none;" d="M279 326L279 327L296 325L279 326z"/>
<path style="fill:#e0e0e0; stroke:none;" d="M281 325L281 326L295 326L281 325z"/>
<path style="fill:#a5cafb; stroke:none;" d="M297 325L306 327L306 326L297 325z"/>
<path style="fill:#f4f4f4; stroke:none;" d="M298 325L298 326L304 326L298 325z"/>
<path style="fill:#a3b8d4; stroke:none;" d="M359 325L359 326L363 326L359 325z"/>
<path style="fill:#cfcfcf; stroke:none;" d="M270 327L270 328L274 327L270 327z"/>
<path style="fill:#949494; stroke:none;" d="M54.6667 327.333L55.3333 327.667L54.6667 327.333z"/>
<path style="fill:#d8d8d8; stroke:none;" d="M278 327C280.479 333.944 290.326 338.748 297 341L296 327L278 327z"/>
<path style="fill:#bababa; stroke:none;" d="M24 340L24 341L54 329C45.6031 327.27 31.7724 336.714 24 340z"/>
<path style="fill:#b4b4b4; stroke:none;" d="M178 328L178 334L179 334L178 328z"/>
<path style="fill:#c0c0c0; stroke:none;" d="M183 329L183 335L184 335L183 329z"/>
<path style="fill:#a7a7a7; stroke:none;" d="M351 330L351 331L394 344C383.673 336.739 363.524 331.271 351 330z"/>
<path style="fill:#999999; stroke:none;" d="M298 331L298 335L299 335L298 331z"/>
<path style="fill:#b1b1b1; stroke:none;" d="M271 332L271 333L276 333L271 332z"/>
<path style="fill:#b5b5b5; stroke:none;" d="M233.667 334.333L234.333 334.667L233.667 334.333z"/>
<path style="fill:#c8c8c8; stroke:none;" d="M237 335L237 336L241 336L237 335z"/>
<path style="fill:#aeaeae; stroke:none;" d="M177 338L177 343L178 343L177 338z"/>
<path style="fill:#939393; stroke:none;" d="M224 340L225 343L224 340z"/>
<path style="fill:#767676; stroke:none;" d="M177 343L176 363L177 363L177 343z"/>
<path style="fill:#b8b8b8; stroke:none;" d="M176 346L176 351L177 351L176 346z"/>
<path style="fill:#c4c4c4; stroke:none;" d="M177 355L177 363L178 363L177 355z"/>
<path style="fill:#9b9b9b; stroke:none;" d="M175 356L168 425L169 425L175.118 376L175 356z"/>
<path style="fill:#c7c7c7; stroke:none;" d="M174 363L174 371L175 371L174 363z"/>
<path style="fill:#a0a0a0; stroke:none;" d="M236 365L236 368L237 368L236 365z"/>
<path style="fill:#797979; stroke:none;" d="M331 367L349 378C345.355 372.737 337.422 367.42 331 367z"/>
<path style="fill:#9b9b9b; stroke:none;" d="M234 371L234 374L235 374L234 371z"/>
<path style="fill:#adadad; stroke:none;" d="M349 377C352.227 382.365 359.175 386.013 365 388L349 377z"/>
<path style="fill:#9a9a9a; stroke:none;" d="M252 391L252 434L253 434C253 421.363 256.42 402.827 252 391z"/>
<path style="fill:#acacac; stroke:none;" d="M244 403L243 406L244 403M176 410L191 427L192 426L176 410z"/>
<path style="fill:#bbbbbb; stroke:none;" d="M167 425L166 442L165 442L161 430L160 430C160.883 435.361 162.349 442.815 167 446L169 425L167 425z"/>
<path style="fill:#ababab; stroke:none;" d="M211 441L211 442L217 442L211 441z"/>
</svg>
